<svg width="79" height="87" viewBox="0 0 79 87" fill="none" xmlns="http://www.w3.org/2000/svg">
<path d="M79 0L71.5926 78.5411L39.4995 87L7.40585 78.5411L0 0H79ZM64.0737 15.9701H39.4706H14.4317L15.6291 25.4547H39.4706H40.8098L39.4706 26.0003L16.5005 35.3654L17.2623 44.6363L39.4706 44.7068L51.3736 44.7437L50.6116 57.1053L39.4704 60.1758V60.1661L39.3791 60.191L28.6195 57.5321L27.9666 49.8587H27.9309H17.9508H17.9157L19.2221 64.6721L39.4708 70.5338V70.5232L39.5073 70.5338L59.6475 64.7788L62.26 35.3654H39.4708H39.4146L39.4708 35.3415L63.0948 25.4547L64.0737 15.9701Z" fill="#FAFAFA"/>
</svg>
