<svg width="71" height="102" viewBox="0 0 71 102" fill="none" xmlns="http://www.w3.org/2000/svg">
<path d="M24.1511 41.6788C23.2866 39.6326 22.8991 37.2459 23.5596 35.0778C24.2199 32.8612 25.6989 31.0831 27.178 29.4265C31.2958 25.0174 36.3705 21.7778 40.3979 17.2962C42.6276 14.8358 44.4705 11.8884 45.1074 8.50233C45.6309 6.01799 45.3809 3.46046 44.9032 1C47.042 3.60645 47.7475 7.33325 47.1329 10.6949C46.4733 14.4702 44.5158 17.8072 42.2179 20.6814C40.375 22.9958 38.2585 25.0418 36.0517 26.9422C33.4805 29.1588 30.955 31.5457 29.3397 34.6637C27.9738 37.1966 27.6552 40.3146 28.5884 43.0672C30.1132 47.7925 33.6624 51.3003 35.5968 55.7576C33.4575 53.7357 31.3645 51.641 29.407 49.4247C27.3599 47.0862 25.4255 44.6021 24.1511 41.6788ZM35.7557 37.976C35.3691 41.8492 37.2571 45.5028 39.5104 48.3774C40.6021 49.6682 41.5351 51.2515 41.5803 53.0543C41.6262 55.4648 40.3526 57.7067 38.7131 59.2893C39.1005 59.2412 39.3734 58.8754 39.6921 58.6807C42.1496 56.9999 44.5154 54.8807 45.7214 51.9827C46.5179 50.0095 46.336 47.6707 45.2896 45.8435C44.0604 43.7001 42.4453 41.8001 41.4898 39.4619C40.9657 38.1467 40.7838 36.6122 41.2163 35.2238C41.7856 33.3485 43.0141 31.8136 44.3112 30.4739C47.8833 26.845 52.2065 24.262 56.348 21.4369C51.1144 23.0444 45.9494 25.2612 41.5351 28.7448C38.7362 30.9856 36.1427 34.1033 35.7557 37.976ZM60.6264 56.2938C63.1067 56.4402 65.5406 58.3885 65.9962 61.0682C66.4287 63.3822 65.3823 65.6717 64.0392 67.4253C61.8318 70.2507 58.8508 72.2728 55.8482 74.0024C55.5517 74.1963 55.3016 74.4401 55.074 74.7084C59.0334 73.6364 62.9921 72.0296 66.2009 69.2767C67.9751 67.6934 69.5452 65.5979 69.8868 63.0891C70.2055 60.9216 69.364 58.6805 67.8619 57.2435C66.0411 55.4646 63.4707 54.8075 61.0582 55.1488C59.6701 55.3435 58.1459 55.6601 57.1904 56.9024C58.3285 56.6596 59.4425 56.1719 60.6264 56.2938ZM11.227 63.2595C14.2073 64.1122 17.2794 64.356 20.3284 64.5754C23.0589 64.7701 25.7898 64.8192 28.5432 64.7946C35.6422 64.6734 42.7868 64.1613 49.7494 62.5051C50.409 62.3349 51.1374 62.213 51.7297 61.7746C52.89 60.9703 54.1634 60.3369 55.4155 59.7036C49.7494 60.6779 44.0608 61.5069 38.3271 61.8963C32.5248 62.286 26.6766 62.5296 20.852 62.1157C19.191 61.9455 17.4842 61.8474 15.9371 61.165C15.5725 60.9948 15.0718 60.6545 15.2537 60.1421C15.5954 59.4844 16.278 59.1682 16.8696 58.8271C19.3729 57.5603 22.1031 56.8543 24.7655 56.0261C20.1915 55.9525 15.6405 57.1946 11.4546 59.1192C10.5214 59.6067 9.47484 59.9961 8.72423 60.8245C8.42772 61.1648 8.42772 61.7505 8.76938 62.0421C9.45217 62.6999 10.3618 62.992 11.227 63.2595ZM48.089 69.9587C44.1067 70.7139 40.1014 71.421 36.0738 71.6396C31.6595 71.9562 27.2453 71.6879 22.8768 71.201C22.0351 71.0791 21.1929 70.9333 20.4423 70.5194C20.0555 70.2756 19.6689 69.8861 19.6917 69.3738C19.7369 68.5703 20.3736 68.0104 20.8292 67.4255C19.4188 67.9615 18.0077 68.5212 16.8246 69.521C16.3233 69.9351 15.8232 70.5922 15.9594 71.3229C16.165 72.1754 16.9385 72.6869 17.6211 73.0764C19.3044 74.0026 21.1931 74.4161 23.0367 74.7816C27.7003 75.5859 32.4562 75.6104 37.1434 75.2685C42.105 74.8546 47.042 73.9781 51.8431 72.4675C50.4779 71.8104 49.1807 71.0544 48.089 69.9587ZM23.0817 78.3875C21.8075 78.7769 20.5103 79.2401 19.464 80.1403C18.9397 80.5789 18.5307 81.3348 18.7814 82.0411C19.1 82.9421 19.8965 83.4789 20.6465 83.9403C22.604 85.0859 24.8109 85.6211 26.9724 86.0358C31.8652 86.8634 36.8933 86.7419 41.7629 85.8166C44.6524 85.2317 47.5424 84.4035 50.2271 83.1131C48.475 82.3335 46.7689 81.4562 45.1308 80.4335C42.2865 80.9693 39.4188 81.53 36.5063 81.7247C32.6615 82.0413 28.7701 81.7002 24.9246 81.1889C24.0142 80.9695 22.8768 80.8722 22.2624 80.0194C21.9445 79.3123 22.6722 78.8008 23.0817 78.3875ZM54.2095 94.0491C57.3947 93.3438 60.6035 92.5385 63.5158 90.956C64.4255 90.3949 65.5406 89.7859 65.8371 88.6174C65.9962 87.4971 64.9039 86.9121 64.1303 86.4491C64.6079 87.0348 64.9266 87.8869 64.4483 88.5685C63.6519 89.7139 62.2874 90.1519 61.081 90.5904C57.3042 91.7352 53.39 92.1982 49.4993 92.6612C39.1917 93.6597 28.8154 93.9035 18.5084 92.9779C15.0497 92.5877 11.5221 92.1738 8.22297 90.8587C7.70015 90.6149 6.90366 90.371 6.90366 89.6156C7.10785 88.9593 7.70015 88.5928 8.22297 88.2761C10.5894 86.9855 13.229 86.2787 15.8683 86.1084C15.0954 85.6209 14.185 85.5726 13.2977 85.5971C11.0901 85.6701 8.92861 86.2787 6.83565 87.0348C5.03793 87.7401 3.19487 88.5202 1.76093 89.9333C1.19222 90.4685 0.669392 91.4914 1.26022 92.2227C2.1706 93.2702 3.58169 93.5378 4.83227 93.8544C11.8407 95.1458 18.9397 95.8755 26.0399 96.1438C35.4601 96.437 44.9483 95.9982 54.2095 94.0491ZM63.5387 95.3649C59.2606 96.8264 54.8239 97.6299 50.4091 98.2878C42.7868 99.3107 35.0956 99.6274 27.4274 99.3843C22.7631 99.1896 18.0988 98.8485 13.5019 98.0195C14.5713 98.7992 15.8914 99.0424 17.1204 99.4082C22.2859 100.578 27.587 100.797 32.8436 100.967C40.5562 101.113 48.2701 100.797 55.8703 99.5056C59.4659 98.8246 63.0837 97.9959 66.3141 96.1931C67.9986 95.2432 69.7055 93.781 70 91.6624C68.294 93.6106 65.8371 94.5123 63.5387 95.3649Z" fill="white" stroke="white"/>
</svg>
