<svg width="98" height="97" viewBox="0 0 98 97" fill="none" xmlns="http://www.w3.org/2000/svg">
<mask id="path-1-inside-1_2059_9188" fill="white">
<path d="M95.6336 69.9046C95.6336 69.9046 83.4452 103.675 41.4835 95.8132C40.8232 95.6869 40.1899 95.4511 39.5486 95.2519C39.3987 95.2067 39.2472 95.1575 39.0972 95.1133C38.4672 94.912 37.8435 94.7055 37.2237 94.4834C37.1527 94.458 37.085 94.4341 37.0131 94.4079C36.4485 94.204 35.887 93.9874 35.3327 93.7687C35.1875 93.7106 35.0431 93.6541 34.8987 93.5934C34.3015 93.351 33.7074 93.0976 33.1196 92.833C33.0112 92.7839 32.9067 92.7347 32.7966 92.6848C32.2821 92.4497 31.774 92.2062 31.2702 91.9587C31.1394 91.8905 31.0079 91.8275 30.8761 91.7636C30.8044 91.7268 30.7271 91.6899 30.6536 91.6523C30.3284 91.4852 30.0108 91.3116 29.6903 91.1392C29.4431 91.0082 29.1919 90.8805 28.9462 90.7451C28.4925 90.4911 28.045 90.233 27.5999 89.9692C27.4348 89.8724 27.2681 89.779 27.1045 89.6815C26.5001 89.3162 25.9019 88.9367 25.3125 88.553C25.1459 88.4433 24.981 88.327 24.8166 88.2137C24.4323 87.9582 24.0477 87.7024 23.6713 87.4354C23.6314 87.4074 23.5932 87.3781 23.5541 87.3493C23.4082 87.2476 23.2695 87.1436 23.1243 87.0354C22.7271 86.7519 22.334 86.4618 21.9449 86.1669C21.7567 86.0211 21.5692 85.8745 21.3826 85.7277C21.0301 85.4514 20.6793 85.1687 20.3314 84.8835C20.1584 84.7411 19.983 84.6002 19.81 84.456C19.3857 84.0969 18.9629 83.7314 18.549 83.3628C18.4708 83.2924 18.3879 83.2235 18.3081 83.1498C18.3001 83.1464 18.2945 83.1399 18.2857 83.1324C17.816 82.7096 17.355 82.2761 16.898 81.8337C16.7601 81.7043 16.6228 81.5658 16.4841 81.4298C16.1427 81.0929 15.8046 80.7535 15.4721 80.4095C15.334 80.2702 15.1976 80.1293 15.0653 79.9882C14.6355 79.5343 14.2111 79.0797 13.7965 78.6149C13.7813 78.5938 13.7662 78.5814 13.748 78.5609C13.7407 78.5528 13.7303 78.542 13.7232 78.5329C13.299 78.0527 12.8826 77.5619 12.4751 77.0695C12.361 76.9309 12.2463 76.7893 12.1337 76.6492C11.83 76.273 11.5308 75.8978 11.2374 75.5176C11.1154 75.3593 10.9934 75.1997 10.873 75.0407C10.5437 74.6039 10.2182 74.1639 9.90314 73.7164C9.84407 73.6329 9.78117 73.5509 9.7244 73.4689C9.71232 73.4551 9.70215 73.4401 9.6941 73.4264C9.32895 72.9075 8.97645 72.3791 8.63029 71.8498C8.5227 71.6875 8.42144 71.5204 8.31769 71.3531C8.06722 70.9616 7.82155 70.5697 7.58393 70.1732C7.45966 69.9701 7.34152 69.7661 7.22185 69.5618C7.00571 69.1915 6.79437 68.8211 6.58936 68.4475C6.47218 68.2361 6.35654 68.0296 6.24319 67.8124C6.1801 67.6978 6.11163 67.5795 6.05026 67.4593C5.94248 67.2592 5.84525 67.0505 5.73996 66.8464C5.57733 66.526 5.41221 66.204 5.25514 65.8779C-1.37223 52.2635 -2.45369 35.5938 6.22325 22.7804L12.9958 13.9551C5.35467 29.1287 8.78889 47.6054 18.348 61.0007C18.6932 61.4884 19.0467 61.9694 19.4078 62.4502C19.5196 62.5952 19.6318 62.7412 19.7436 62.8805C20.0441 63.2738 20.3512 63.6622 20.6615 64.0466C20.7733 64.1818 20.8824 64.3144 20.9965 64.4537C21.4113 64.9569 21.8356 65.4566 22.2711 65.9441C22.2918 65.9677 22.3117 65.9892 22.3317 66.0121C22.7433 66.4735 23.1627 66.9289 23.5894 67.3782C23.7217 67.5157 23.8565 67.6519 23.9914 67.7896C24.3264 68.1409 24.6685 68.482 25.0162 68.8211C25.1478 68.9555 25.2801 69.0849 25.4167 69.2185C25.8864 69.6676 26.3601 70.1141 26.8426 70.5501C26.8928 70.5953 26.9446 70.6368 26.9908 70.6786C27.4375 71.0776 27.8897 71.4662 28.3475 71.853C28.507 71.9866 28.6697 72.12 28.8323 72.2528C29.1919 72.5501 29.5557 72.8396 29.9218 73.1271C30.0965 73.2648 30.2758 73.4049 30.4571 73.5424C30.855 73.8457 31.257 74.144 31.663 74.439C31.8009 74.5347 31.9349 74.639 32.0745 74.7355C32.4942 75.0338 32.9216 75.3239 33.3507 75.6074C33.5118 75.7174 33.6713 75.832 33.8339 75.9386C34.4258 76.3237 35.0239 76.7022 35.6284 77.0677C35.784 77.1595 35.9395 77.2454 36.0925 77.3341C36.5488 77.6052 37.0058 77.8722 37.4715 78.128C37.7235 78.272 37.9827 78.4024 38.2378 78.541C38.6191 78.7425 39.0003 78.9475 39.3862 79.1408C39.5321 79.2145 39.6741 79.2834 39.8169 79.353C40.309 79.5963 40.8027 79.8308 41.3019 80.0633C41.42 80.1159 41.5347 80.1707 41.6536 80.2231C42.2351 80.4846 42.8227 80.7354 43.4153 80.9752C43.5676 81.0375 43.7201 81.0974 43.8731 81.1598C44.4122 81.3744 44.9553 81.5827 45.5048 81.7817C45.5901 81.8128 45.6755 81.8448 45.7583 81.8759C46.3709 82.0924 46.9872 82.2987 47.6086 82.4938C47.7672 82.5447 47.926 82.5939 48.0886 82.643C48.725 82.8363 49.3575 83.0453 50.0099 83.1971C67.2266 87.2228 85.3967 83.6075 95.6336 69.9046ZM34.8926 48.2553C35.8336 49.6393 36.8752 51.287 38.1233 52.3993C38.5748 52.9112 39.0485 53.4101 39.531 53.9009C39.6522 54.0286 39.7774 54.1516 39.9027 54.2769C40.37 54.7441 40.8485 55.2038 41.3399 55.6503C41.3606 55.6658 41.379 55.6873 41.3989 55.7021C41.4045 55.7086 41.4093 55.7102 41.4133 55.7167C41.9589 56.2067 42.522 56.6796 43.0929 57.144C43.2199 57.2441 43.3457 57.3482 43.4742 57.4498C44.0476 57.9013 44.6324 58.3454 45.2321 58.768C45.2505 58.781 45.2647 58.7944 45.2831 58.8075C45.547 58.9958 45.8166 59.1712 46.0838 59.3515C46.213 59.4368 46.335 59.5284 46.4641 59.6088C46.8931 59.8916 47.3263 60.1661 47.7672 60.4299C47.8295 60.4693 47.8901 60.502 47.9515 60.5389C48.3303 60.7635 48.7171 60.9855 49.1032 61.2001C49.237 61.2772 49.3743 61.3459 49.5115 61.4196C49.7778 61.5623 50.0458 61.7089 50.3169 61.8474C50.3576 61.8671 50.4 61.8866 50.4391 61.904C50.9918 62.1834 51.5491 62.4537 52.1195 62.7077C52.2407 62.7635 52.3667 62.8125 52.4904 62.8651C52.9459 63.0633 53.4052 63.2576 53.867 63.4395C54.063 63.5158 54.2619 63.5887 54.4563 63.6616C54.8765 63.8222 55.2969 63.9682 55.7211 64.114C55.9135 64.1768 56.1016 64.2417 56.2938 64.3023C56.8968 64.4941 57.4932 64.7382 58.1224 64.8448C90.5207 70.3602 98 44.7312 98 44.7312C91.257 54.708 78.2 59.4681 64.2663 55.7529C63.6482 55.5856 63.0383 55.403 62.4329 55.2071C62.2461 55.1496 62.0643 55.0875 61.88 55.0242C61.4494 54.8808 61.021 54.7285 60.5962 54.5695C60.4023 54.4966 60.2078 54.4237 60.017 54.3482C59.552 54.1646 59.0919 53.9746 58.6366 53.7764C58.5113 53.7206 58.3861 53.6714 58.2641 53.614C57.6924 53.3581 57.1294 53.0893 56.5742 52.8073C56.2878 52.6637 56.0078 52.512 55.7255 52.3632C55.5627 52.2771 55.3993 52.1908 55.2367 52.1047C54.8761 51.9035 54.5173 51.6948 54.1639 51.4832C54.0801 51.4336 53.9924 51.3865 53.9071 51.3345C53.4692 51.0706 53.037 50.7989 52.6087 50.5199C52.477 50.4336 52.3494 50.3396 52.2179 50.2507C51.9346 50.0627 51.6533 49.8722 51.3756 49.6789C50.7791 49.2561 50.1984 48.8121 49.625 48.3631C49.4927 48.2561 49.3611 48.1516 49.2301 48.0446C43.1323 43.0967 38.2986 36.3358 35.9984 28.6695C33.5906 20.7185 34.1099 11.7935 38.2833 4.55048L33.156 11.9864C26.8819 21.2641 27.2225 33.6833 32.1167 43.4954C32.9387 45.1405 33.8614 46.7357 34.8926 48.2553ZM69.0411 36.7772C69.3082 36.8797 69.5746 36.9705 69.8448 37.0645C69.963 37.1017 70.0809 37.1435 70.1998 37.1796C70.5811 37.3029 70.9598 37.446 71.354 37.522C89.244 41.0733 94.0953 28.0899 95.3874 26.1791C91.1365 32.4667 83.9946 33.9761 75.2291 31.7911C74.5377 31.6175 73.7769 31.3605 73.1084 31.118C72.2526 30.8045 71.4113 30.4473 70.5914 30.0429C69.034 29.2747 67.5521 28.3427 66.1757 27.2755C58.3336 21.1615 53.4623 9.49819 58.5792 0L55.8101 3.92132C52.1112 9.51455 51.7484 16.4607 54.314 22.6385C57.0208 29.1949 62.5675 34.339 69.0411 36.7772Z"/>
</mask>
<path d="M95.6336 69.9046C95.6336 69.9046 83.4452 103.675 41.4835 95.8132C40.8232 95.6869 40.1899 95.4511 39.5486 95.2519C39.3987 95.2067 39.2472 95.1575 39.0972 95.1133C38.4672 94.912 37.8435 94.7055 37.2237 94.4834C37.1527 94.458 37.085 94.4341 37.0131 94.4079C36.4485 94.204 35.887 93.9874 35.3327 93.7687C35.1875 93.7106 35.0431 93.6541 34.8987 93.5934C34.3015 93.351 33.7074 93.0976 33.1196 92.833C33.0112 92.7839 32.9067 92.7347 32.7966 92.6848C32.2821 92.4497 31.774 92.2062 31.2702 91.9587C31.1394 91.8905 31.0079 91.8275 30.8761 91.7636C30.8044 91.7268 30.7271 91.6899 30.6536 91.6523C30.3284 91.4852 30.0108 91.3116 29.6903 91.1392C29.4431 91.0082 29.1919 90.8805 28.9462 90.7451C28.4925 90.4911 28.045 90.233 27.5999 89.9692C27.4348 89.8724 27.2681 89.779 27.1045 89.6815C26.5001 89.3162 25.9019 88.9367 25.3125 88.553C25.1459 88.4433 24.981 88.327 24.8166 88.2137C24.4323 87.9582 24.0477 87.7024 23.6713 87.4354C23.6314 87.4074 23.5932 87.3781 23.5541 87.3493C23.4082 87.2476 23.2695 87.1436 23.1243 87.0354C22.7271 86.7519 22.334 86.4618 21.9449 86.1669C21.7567 86.0211 21.5692 85.8745 21.3826 85.7277C21.0301 85.4514 20.6793 85.1687 20.3314 84.8835C20.1584 84.7411 19.983 84.6002 19.81 84.456C19.3857 84.0969 18.9629 83.7314 18.549 83.3628C18.4708 83.2924 18.3879 83.2235 18.3081 83.1498C18.3001 83.1464 18.2945 83.1399 18.2857 83.1324C17.816 82.7096 17.355 82.2761 16.898 81.8337C16.7601 81.7043 16.6228 81.5658 16.4841 81.4298C16.1427 81.0929 15.8046 80.7535 15.4721 80.4095C15.334 80.2702 15.1976 80.1293 15.0653 79.9882C14.6355 79.5343 14.2111 79.0797 13.7965 78.6149C13.7813 78.5938 13.7662 78.5814 13.748 78.5609C13.7407 78.5528 13.7303 78.542 13.7232 78.5329C13.299 78.0527 12.8826 77.5619 12.4751 77.0695C12.361 76.9309 12.2463 76.7893 12.1337 76.6492C11.83 76.273 11.5308 75.8978 11.2374 75.5176C11.1154 75.3593 10.9934 75.1997 10.873 75.0407C10.5437 74.6039 10.2182 74.1639 9.90314 73.7164C9.84407 73.6329 9.78117 73.5509 9.7244 73.4689C9.71232 73.4551 9.70215 73.4401 9.6941 73.4264C9.32895 72.9075 8.97645 72.3791 8.63029 71.8498C8.5227 71.6875 8.42144 71.5204 8.31769 71.3531C8.06722 70.9616 7.82155 70.5697 7.58393 70.1732C7.45966 69.9701 7.34152 69.7661 7.22185 69.5618C7.00571 69.1915 6.79437 68.8211 6.58936 68.4475C6.47218 68.2361 6.35654 68.0296 6.24319 67.8124C6.1801 67.6978 6.11163 67.5795 6.05026 67.4593C5.94248 67.2592 5.84525 67.0505 5.73996 66.8464C5.57733 66.526 5.41221 66.204 5.25514 65.8779C-1.37223 52.2635 -2.45369 35.5938 6.22325 22.7804L12.9958 13.9551C5.35467 29.1287 8.78889 47.6054 18.348 61.0007C18.6932 61.4884 19.0467 61.9694 19.4078 62.4502C19.5196 62.5952 19.6318 62.7412 19.7436 62.8805C20.0441 63.2738 20.3512 63.6622 20.6615 64.0466C20.7733 64.1818 20.8824 64.3144 20.9965 64.4537C21.4113 64.9569 21.8356 65.4566 22.2711 65.9441C22.2918 65.9677 22.3117 65.9892 22.3317 66.0121C22.7433 66.4735 23.1627 66.9289 23.5894 67.3782C23.7217 67.5157 23.8565 67.6519 23.9914 67.7896C24.3264 68.1409 24.6685 68.482 25.0162 68.8211C25.1478 68.9555 25.2801 69.0849 25.4167 69.2185C25.8864 69.6676 26.3601 70.1141 26.8426 70.5501C26.8928 70.5953 26.9446 70.6368 26.9908 70.6786C27.4375 71.0776 27.8897 71.4662 28.3475 71.853C28.507 71.9866 28.6697 72.12 28.8323 72.2528C29.1919 72.5501 29.5557 72.8396 29.9218 73.1271C30.0965 73.2648 30.2758 73.4049 30.4571 73.5424C30.855 73.8457 31.257 74.144 31.663 74.439C31.8009 74.5347 31.9349 74.639 32.0745 74.7355C32.4942 75.0338 32.9216 75.3239 33.3507 75.6074C33.5118 75.7174 33.6713 75.832 33.8339 75.9386C34.4258 76.3237 35.0239 76.7022 35.6284 77.0677C35.784 77.1595 35.9395 77.2454 36.0925 77.3341C36.5488 77.6052 37.0058 77.8722 37.4715 78.128C37.7235 78.272 37.9827 78.4024 38.2378 78.541C38.6191 78.7425 39.0003 78.9475 39.3862 79.1408C39.5321 79.2145 39.6741 79.2834 39.8169 79.353C40.309 79.5963 40.8027 79.8308 41.3019 80.0633C41.42 80.1159 41.5347 80.1707 41.6536 80.2231C42.2351 80.4846 42.8227 80.7354 43.4153 80.9752C43.5676 81.0375 43.7201 81.0974 43.8731 81.1598C44.4122 81.3744 44.9553 81.5827 45.5048 81.7817C45.5901 81.8128 45.6755 81.8448 45.7583 81.8759C46.3709 82.0924 46.9872 82.2987 47.6086 82.4938C47.7672 82.5447 47.926 82.5939 48.0886 82.643C48.725 82.8363 49.3575 83.0453 50.0099 83.1971C67.2266 87.2228 85.3967 83.6075 95.6336 69.9046ZM34.8926 48.2553C35.8336 49.6393 36.8752 51.287 38.1233 52.3993C38.5748 52.9112 39.0485 53.4101 39.531 53.9009C39.6522 54.0286 39.7774 54.1516 39.9027 54.2769C40.37 54.7441 40.8485 55.2038 41.3399 55.6503C41.3606 55.6658 41.379 55.6873 41.3989 55.7021C41.4045 55.7086 41.4093 55.7102 41.4133 55.7167C41.9589 56.2067 42.522 56.6796 43.0929 57.144C43.2199 57.2441 43.3457 57.3482 43.4742 57.4498C44.0476 57.9013 44.6324 58.3454 45.2321 58.768C45.2505 58.781 45.2647 58.7944 45.2831 58.8075C45.547 58.9958 45.8166 59.1712 46.0838 59.3515C46.213 59.4368 46.335 59.5284 46.4641 59.6088C46.8931 59.8916 47.3263 60.1661 47.7672 60.4299C47.8295 60.4693 47.8901 60.502 47.9515 60.5389C48.3303 60.7635 48.7171 60.9855 49.1032 61.2001C49.237 61.2772 49.3743 61.3459 49.5115 61.4196C49.7778 61.5623 50.0458 61.7089 50.3169 61.8474C50.3576 61.8671 50.4 61.8866 50.4391 61.904C50.9918 62.1834 51.5491 62.4537 52.1195 62.7077C52.2407 62.7635 52.3667 62.8125 52.4904 62.8651C52.9459 63.0633 53.4052 63.2576 53.867 63.4395C54.063 63.5158 54.2619 63.5887 54.4563 63.6616C54.8765 63.8222 55.2969 63.9682 55.7211 64.114C55.9135 64.1768 56.1016 64.2417 56.2938 64.3023C56.8968 64.4941 57.4932 64.7382 58.1224 64.8448C90.5207 70.3602 98 44.7312 98 44.7312C91.257 54.708 78.2 59.4681 64.2663 55.7529C63.6482 55.5856 63.0383 55.403 62.4329 55.2071C62.2461 55.1496 62.0643 55.0875 61.88 55.0242C61.4494 54.8808 61.021 54.7285 60.5962 54.5695C60.4023 54.4966 60.2078 54.4237 60.017 54.3482C59.552 54.1646 59.0919 53.9746 58.6366 53.7764C58.5113 53.7206 58.3861 53.6714 58.2641 53.614C57.6924 53.3581 57.1294 53.0893 56.5742 52.8073C56.2878 52.6637 56.0078 52.512 55.7255 52.3632C55.5627 52.2771 55.3993 52.1908 55.2367 52.1047C54.8761 51.9035 54.5173 51.6948 54.1639 51.4832C54.0801 51.4336 53.9924 51.3865 53.9071 51.3345C53.4692 51.0706 53.037 50.7989 52.6087 50.5199C52.477 50.4336 52.3494 50.3396 52.2179 50.2507C51.9346 50.0627 51.6533 49.8722 51.3756 49.6789C50.7791 49.2561 50.1984 48.8121 49.625 48.3631C49.4927 48.2561 49.3611 48.1516 49.2301 48.0446C43.1323 43.0967 38.2986 36.3358 35.9984 28.6695C33.5906 20.7185 34.1099 11.7935 38.2833 4.55048L33.156 11.9864C26.8819 21.2641 27.2225 33.6833 32.1167 43.4954C32.9387 45.1405 33.8614 46.7357 34.8926 48.2553ZM69.0411 36.7772C69.3082 36.8797 69.5746 36.9705 69.8448 37.0645C69.963 37.1017 70.0809 37.1435 70.1998 37.1796C70.5811 37.3029 70.9598 37.446 71.354 37.522C89.244 41.0733 94.0953 28.0899 95.3874 26.1791C91.1365 32.4667 83.9946 33.9761 75.2291 31.7911C74.5377 31.6175 73.7769 31.3605 73.1084 31.118C72.2526 30.8045 71.4113 30.4473 70.5914 30.0429C69.034 29.2747 67.5521 28.3427 66.1757 27.2755C58.3336 21.1615 53.4623 9.49819 58.5792 0L55.8101 3.92132C52.1112 9.51455 51.7484 16.4607 54.314 22.6385C57.0208 29.1949 62.5675 34.339 69.0411 36.7772Z" fill="#FAFAFA" stroke="#FAFAFA" stroke-width="2" mask="url(#path-1-inside-1_2059_9188)"/>
</svg>
