<svg width="94" height="94" viewBox="0 0 94 94" fill="none" xmlns="http://www.w3.org/2000/svg">
<path d="M85.3278 67.6806C73.7555 83.1165 49.0453 77.907 33.1984 78.6532C33.1984 78.6532 30.3909 78.8128 27.5693 79.2774C27.5693 79.2774 28.6379 78.8222 30.0018 78.3482C41.1289 74.4951 46.3878 73.7207 53.1512 70.243C65.8531 63.7289 78.4988 49.532 81.072 34.786C76.2349 48.9688 61.527 61.1758 48.136 66.1318C38.9729 69.5203 22.3947 72.8149 22.3901 72.8149C22.1648 72.6994 21.9414 72.5805 21.7198 72.4582C10.4474 66.9672 10.1194 42.5156 30.5971 34.6358C39.5775 31.1816 48.1595 33.0776 57.8664 30.7639C68.2154 28.3 80.2049 20.5327 85.0747 10.3767C90.5351 26.6057 97.097 51.9865 85.3278 67.6806ZM85.5247 5.35494C84.2155 8.49819 82.54 11.4755 80.533 14.2251C76.1701 9.72264 70.9487 6.14347 65.1782 3.69991C59.4078 1.25634 53.2061 -0.0018381 46.9408 2.01548e-06C21.0543 2.01548e-06 5.12899e-06 21.0818 5.12899e-06 46.9976C-0.00301757 53.4622 1.33003 59.8574 3.91529 65.781C6.50055 71.7046 10.2821 77.0284 15.022 81.4175L16.0532 82.328C15.3016 81.5742 14.8797 80.5523 14.8804 79.4872C14.881 78.422 15.3042 77.4006 16.0567 76.6478C16.8092 75.8949 17.8295 75.4721 18.8933 75.4723C19.9571 75.4725 20.9773 75.8957 21.7295 76.6489C22.4817 77.4021 22.9044 78.4236 22.9046 79.4888C22.9048 80.554 22.4826 81.5757 21.7307 82.3292C20.9788 83.0827 19.9588 83.5064 18.895 83.507C17.8312 83.5077 16.8107 83.0853 16.0579 82.3327L16.7562 82.9522C25.1948 90.0959 35.8906 94.0106 46.9408 94C71.6791 94 91.9975 74.7203 93.7364 50.3908C95.0206 38.4748 91.5053 23.3439 85.5247 5.35494Z" fill="#FAFAFA"/>
</svg>
